<?xml version="1.0" ?><svg id="Layer_1" style="enable-background:new 0 0 595.3 595.3;" version="1.1" viewBox="0 0 595.3 595.3" xml:space="preserve" xmlns="http://www.w3.org/2000/svg" xmlns:xlink="http://www.w3.org/1999/xlink"><style type="text/css">
	.st0{fill:#FFFFFF;}
	.st1{fill:#EDBD44;}
	.st2{fill:#C5802A;}
	.st3{fill:#009444;}
	.st4{fill:#006838;}
	.st5{fill:#77AAB6;}
	.st6{fill:#167D88;}
	.st7{fill:#005A67;}
	.st8{fill:#6F2334;}
	.st9{fill:#460618;}
	.st10{fill:#961634;}
	.st11{fill:#008245;}
	.st12{fill:#35A0AD;}
	.st13{fill:#203A40;}
	.st14{fill:#27545D;}
</style><rect class="st0" height="595.3" width="595.3"/><g><g><polygon class="st5" points="82.9,248.7 298.6,101.4 514.3,248.7   "/></g><g><polygon class="st6" points="134.6,232.7 298.6,120.7 462.6,232.7   "/></g><g><rect class="st7" height="19.7" width="359" x="119.1" y="248.7"/></g><g><rect class="st7" height="10.8" width="359" x="119.1" y="459.1"/></g><g><rect class="st6" height="10.8" width="371.6" x="112.8" y="469.8"/></g><g><rect class="st5" height="10.8" width="391.5" x="102.8" y="480.6"/></g><g><g><g><circle class="st5" cx="298.6" cy="183.8" r="36.4"/></g></g><g><g><path class="st6" d="M314.5,186.9c-0.8-1.5-1.8-2.7-3.2-3.7c-1.4-1-3.1-1.8-5-2.5c-2-0.7-4.2-1.3-6.6-1.9      c-1.9-0.5-3.3-0.9-4.2-1.1c-0.8-0.3-1.7-0.6-2.5-1.1c-0.8-0.4-1.5-1-1.9-1.6c-0.5-0.6-0.7-1.4-0.7-2.2c0-1.4,0.7-2.6,2.1-3.6      c1.4-1,3.2-1.5,5.4-1.5c2.4,0,4.2,0.5,5.3,1.4c1.1,0.9,2,2.2,2.8,3.8c0.6,1.1,1.2,2,1.7,2.5c0.5,0.5,1.3,0.7,2.3,0.7      c1.1,0,2-0.4,2.7-1.2c0.7-0.8,1.1-1.8,1.1-2.8c0-1.1-0.3-2.3-0.9-3.5c-0.6-1.2-1.5-2.3-2.8-3.4c-1.3-1.1-2.9-2-4.8-2.6      c-1.2-0.4-2.5-0.7-4-0.8v-6.4h-5.5v6.4c-2.2,0.2-4.2,0.7-6,1.4c-2.4,1-4.3,2.4-5.6,4.2c-1.3,1.8-1.9,3.9-1.9,6.3      c0,2.5,0.6,4.6,1.8,6.2c1.2,1.7,2.9,3,5,4c2.1,1,4.7,1.8,7.8,2.5c2.3,0.5,4.2,1,5.5,1.5c1.4,0.5,2.5,1.1,3.4,2      c0.9,0.9,1.3,2.1,1.3,3.5c0,1.8-0.8,3.3-2.4,4.5c-1.6,1.2-3.7,1.8-6.3,1.8c-1.9,0-3.4-0.3-4.5-0.9c-1.2-0.6-2-1.4-2.7-2.3      c-0.6-0.9-1.2-2.1-1.8-3.4c-0.5-1.2-1-2-1.6-2.6c-0.6-0.6-1.4-0.9-2.3-0.9c-1.1,0-2.1,0.4-2.8,1.1c-0.7,0.8-1.1,1.7-1.1,2.7      c0,1.8,0.6,3.7,1.8,5.6c1.2,1.9,2.8,3.5,4.8,4.6c2.1,1.2,4.7,2,7.7,2.3v6.6h5.5v-6.6c2.4-0.2,4.6-0.8,6.4-1.6      c2.6-1.2,4.5-2.8,5.9-4.9c1.3-2.1,2-4.4,2-7C315.7,190.2,315.3,188.4,314.5,186.9z"/></g></g></g><g><path class="st6" d="M369,459.1h-42.7l5.4-106.7c1.1-14.6,1.1-29.3,0-43.9l-5.4-40.1H369l-5.4,40.1c-1.1,14.6-1.1,29.3,0,43.9    L369,459.1z"/></g><g><path class="st6" d="M461.7,459.1h-42.7l5.4-106.7c1.1-14.6,1.1-29.3,0-43.9l-5.4-40.1h42.7l-5.4,40.1c-1.1,14.6-1.1,29.3,0,43.9    L461.7,459.1z"/></g><g><path class="st6" d="M228.2,459.1h42.7l-5.4-106.7c-1.1-14.6-1.1-29.3,0-43.9l5.4-40.1h-42.7l5.4,40.1c1.1,14.6,1.1,29.3,0,43.9    L228.2,459.1z"/></g><g><path class="st6" d="M135.5,459.1h42.7l-5.4-106.7c-1.1-14.6-1.1-29.3,0-43.9l5.4-40.1h-42.7l5.4,40.1c1.1,14.6,1.1,29.3,0,43.9    L135.5,459.1z"/></g><g><rect class="st5" height="9" width="47.9" x="132.9" y="268.4"/></g><g><rect class="st5" height="9" width="47.9" x="225.6" y="268.4"/></g><g><rect class="st5" height="9" transform="matrix(-1 -1.224647e-16 1.224647e-16 -1 880.7626 545.706)" width="47.9" x="416.4" y="268.4"/></g><g><rect class="st5" height="9" transform="matrix(-1 -1.224647e-16 1.224647e-16 -1 695.4021 545.706)" width="47.9" x="323.8" y="268.4"/></g><g><rect class="st5" height="9" width="47.9" x="132.9" y="450.1"/></g><g><rect class="st5" height="9" width="47.9" x="225.6" y="450.1"/></g><g><rect class="st5" height="9" transform="matrix(-1 -1.224647e-16 1.224647e-16 -1 880.7626 909.174)" width="47.9" x="416.4" y="450.1"/></g><g><rect class="st5" height="9" transform="matrix(-1 -1.224647e-16 1.224647e-16 -1 695.4021 909.174)" width="47.9" x="323.8" y="450.1"/></g><g><path class="st7" d="M432.2,226.7h-30c-1.4,0-2.5-1.1-2.5-2.5c0-1.4,1.1-2.5,2.5-2.5h24.4L391,197.4c-1.1-0.8-1.4-2.3-0.7-3.5    c0.8-1.1,2.3-1.4,3.5-0.7l40.3,27.5c1.2,0.8,1.7,2.3,1.3,3.7C434.9,225.8,433.7,226.7,432.2,226.7z"/></g><g><path class="st7" d="M389.7,226.7h-23.3c-1.4,0-2.5-1.1-2.5-2.5c0-1.4,1.1-2.5,2.5-2.5h23.3c1.4,0,2.5,1.1,2.5,2.5    C392.2,225.6,391,226.7,389.7,226.7z"/></g><g><path class="st7" d="M355.4,226.7h-13c-1.4,0-2.5-1.1-2.5-2.5c0-1.4,1.1-2.5,2.5-2.5h13c1.4,0,2.5,1.1,2.5,2.5    C357.9,225.6,356.8,226.7,355.4,226.7z"/></g><g><path class="st7" d="M449.6,372.9c-1.3,0-2.4-1-2.5-2.4c-1.2-23.2-1.3-44-1.3-51.9c0-2.7,0.2-5.3,0.5-8l2.4-18.8    c0.2-1.4,1.4-2.3,2.8-2.2c1.4,0.2,2.3,1.4,2.2,2.8l-2.4,18.8c-0.3,2.4-0.5,4.9-0.5,7.3c0,7.8,0.1,28.6,1.3,51.6    c0.1,1.4-1,2.6-2.4,2.6C449.6,372.9,449.6,372.9,449.6,372.9z"/></g><g><path class="st7" d="M452.4,409c-1.3,0-2.4-1-2.5-2.4l-1.2-24.1c-0.1-1.4,1-2.6,2.4-2.6c1.4-0.1,2.6,1,2.6,2.4l1.2,24.1    c0.1,1.4-1,2.6-2.4,2.6C452.5,409,452.4,409,452.4,409z"/></g><g><path class="st7" d="M356.2,372.9c-1.3,0-2.4-1-2.5-2.4c-1.2-23.2-1.3-44-1.3-51.9c0-2.7,0.2-5.3,0.5-8l2.4-18.8    c0.2-1.4,1.4-2.3,2.8-2.2c1.4,0.2,2.3,1.4,2.2,2.8l-2.4,18.8c-0.3,2.4-0.5,4.9-0.5,7.3c0,7.8,0.1,28.5,1.3,51.6    c0.1,1.4-1,2.6-2.4,2.6C356.3,372.9,356.3,372.9,356.2,372.9z"/></g><g><path class="st7" d="M359,409c-1.3,0-2.4-1-2.5-2.4l-1.2-24.1c-0.1-1.4,1-2.6,2.4-2.6c1.4-0.1,2.6,1,2.6,2.4l1.2,24.1    c0.1,1.4-1,2.6-2.4,2.6C359.1,409,359.1,409,359,409z"/></g><g><path class="st7" d="M259.2,372.9c-1.3,0-2.4-1-2.5-2.4c-1.2-23.2-1.3-44-1.3-51.9c0-2.7,0.2-5.3,0.5-8l2.4-18.8    c0.2-1.4,1.4-2.3,2.8-2.2c1.4,0.2,2.3,1.4,2.2,2.8l-2.4,18.8c-0.3,2.4-0.5,4.9-0.5,7.3c0,7.8,0.1,28.5,1.3,51.6    c0.1,1.4-1,2.6-2.4,2.6C259.2,372.9,259.2,372.9,259.2,372.9z"/></g><g><path class="st7" d="M262,409c-1.3,0-2.4-1-2.5-2.4l-1.2-24.1c-0.1-1.4,1-2.6,2.4-2.6c1.4-0.1,2.6,1,2.6,2.4l1.2,24.1    c0.1,1.4-1,2.6-2.4,2.6C262.1,409,262,409,262,409z"/></g><g><path class="st7" d="M166.8,372.9c-1.3,0-2.4-1-2.5-2.4c-1.2-23.2-1.3-44-1.3-51.9c0-2.7,0.2-5.3,0.5-8l2.4-18.8    c0.2-1.4,1.4-2.3,2.8-2.2c1.4,0.2,2.3,1.4,2.2,2.8l-2.4,18.8c-0.3,2.4-0.5,4.9-0.5,7.3c0,7.8,0.1,28.5,1.3,51.6    c0.1,1.4-1,2.6-2.4,2.6C166.8,372.9,166.8,372.9,166.8,372.9z"/></g><g><path class="st7" d="M169.6,409c-1.3,0-2.4-1-2.5-2.4l-1.2-24.1c-0.1-1.4,1-2.6,2.4-2.6c1.4-0.1,2.6,1,2.6,2.4l1.2,24.1    c0.1,1.4-1,2.6-2.4,2.6C169.6,409,169.6,409,169.6,409z"/></g><g><path class="st7" d="M146.8,493.9H77c-1.4,0-2.5-1.1-2.5-2.5c0-1.4,1.1-2.5,2.5-2.5h69.8c1.4,0,2.5,1.1,2.5,2.5    C149.3,492.8,148.2,493.9,146.8,493.9z"/></g><g><path class="st7" d="M315.9,493.9h-143c-1.4,0-2.5-1.1-2.5-2.5c0-1.4,1.1-2.5,2.5-2.5h143c1.4,0,2.5,1.1,2.5,2.5    C318.4,492.8,317.3,493.9,315.9,493.9z"/></g><g><path class="st7" d="M350.5,493.9h-17c-1.4,0-2.5-1.1-2.5-2.5c0-1.4,1.1-2.5,2.5-2.5h17c1.4,0,2.5,1.1,2.5,2.5    C353,492.8,351.9,493.9,350.5,493.9z"/></g><g><path class="st7" d="M419.4,493.9h-55.9c-1.4,0-2.5-1.1-2.5-2.5c0-1.4,1.1-2.5,2.5-2.5h55.9c1.4,0,2.5,1.1,2.5,2.5    C421.9,492.8,420.8,493.9,419.4,493.9z"/></g><g><path class="st7" d="M518.3,493.9h-77.9c-1.4,0-2.5-1.1-2.5-2.5c0-1.4,1.1-2.5,2.5-2.5h77.9c1.4,0,2.5,1.1,2.5,2.5    C520.8,492.8,519.7,493.9,518.3,493.9z"/></g></g></svg>